ffmpeg version 3.4.8-0ubuntu0.2 Copyright (c) 2000-2020 the FFmpeg developers
  built with gcc 7 (Ubuntu 7.5.0-3ubuntu1~18.04)
  configuration: --prefix=/usr --extra-version=0ubuntu0.2 --toolchain=hardened --libdir=/usr/lib/x86_64-linux-gnu --incdir=/usr/include/x86_64-linux-gnu --enable-gpl --disable-stripping --enable-avresample --enable-avisynth --enable-gnutls --enable-ladspa --enable-libass --enable-libbluray --enable-libbs2b --enable-libcaca --enable-libcdio --enable-libflite --enable-libfontconfig --enable-libfreetype --enable-libfribidi --enable-libgme --enable-libgsm --enable-libmp3lame --enable-libmysofa --enable-libopenjpeg --enable-libopenmpt --enable-libopus --enable-libpulse --enable-librubberband --enable-librsvg --enable-libshine --enable-libsnappy --enable-libsoxr --enable-libspeex --enable-libssh --enable-libtheora --enable-libtwolame --enable-libvorbis --enable-libvpx --enable-libwavpack --enable-libwebp --enable-libx265 --enable-libxml2 --enable-libxvid --enable-libzmq --enable-libzvbi --enable-omx --enable-openal --enable-opengl --enable-sdl2 --enable-libdc1394 --enable-libdrm --enable-libiec61883 --enable-chromaprint --enable-frei0r --enable-libopencv --enable-libx264 --enable-shared
  libavutil      55. 78.100 / 55. 78.100
  libavcodec     57.107.100 / 57.107.100
  libavformat    57. 83.100 / 57. 83.100
  libavdevice    57. 10.100 / 57. 10.100
  libavfilter     6.107.100 /  6.107.100
  libavresample   3.  7.  0 /  3.  7.  0
  libswscale      4.  8.100 /  4.  8.100
  libswresample   2.  9.100 /  2.  9.100
  libpostproc    54.  7.100 / 54.  7.100
[rawvideo @ 0x564ac1cc8a20] Estimating duration from bitrate, this may be inaccurate
Input #0, rawvideo, from '../../SVC-Encoder-20220109T061506Z-001/SVC-Encoder/Dataset/RollerCoaster/ERP_8x8/tile_yuv/Tile_29_480x240.yuv':
  Duration: 00:00:10.00, start: 0.000000, bitrate: 41472 kb/s
    Stream #0:0: Video: rawvideo (I420 / 0x30323449), yuv420p, 480x240, 41472 kb/s, 30 tbr, 30 tbn, 30 tbc
Stream mapping:
  Stream #0:0 -> #0:0 (rawvideo (native) -> h264 (libx264))
Press [q] to stop, [?] for help
[libx264 @ 0x564ac1cd5c60] using cpu capabilities: MMX2 SSE2Fast LZCNT SSSE3 SSE4.2 AVX
[libx264 @ 0x564ac1cd5c60] profile High, level 2.1
Output #0, rawvideo, to 'RollerCoaster_Tile_29_480x240_x264_QP_32.h264':
  Metadata:
    encoder         : Lavf57.83.100
    Stream #0:0: Video: h264 (libx264), yuv420p, 480x240, q=-1--1, 30 fps, 30 tbn, 30 tbc
    Metadata:
      encoder         : Lavc57.107.100 libx264
    Side data:
      cpb: bitrate max/min/avg: 0/0/0 buffer size: 0 vbv_delay: -1
frame=  300 fps=0.0 q=38.0 LPSNR=Y:inf U:inf V:inf *:inf size=      43kB time=00:00:09.93 bitrate=  35.8kbits/s speed=20.5x    
video:43kB audio:0kB subtitle:0kB other streams:0kB global headers:0kB muxing overhead: 0.000000%
[libx264 @ 0x564ac1cd5c60] frame I:2     Avg QP:30.81  size:  2688  PSNR Mean Y:43.10 U:47.46 V:49.95 Avg:44.27 Global:44.16
[libx264 @ 0x564ac1cd5c60] frame P:97    Avg QP:32.86  size:   273  PSNR Mean Y:40.61 U:46.03 V:48.51 Avg:41.91 Global:41.75
[libx264 @ 0x564ac1cd5c60] frame B:201   Avg QP:37.52  size:    63  PSNR Mean Y:40.99 U:46.46 V:48.89 Avg:42.29 Global:42.23
[libx264 @ 0x564ac1cd5c60] consecutive B-frames:  6.7%  8.7% 10.0% 74.7%
[libx264 @ 0x564ac1cd5c60] mb I  I16..4: 39.0% 56.4%  4.6%
[libx264 @ 0x564ac1cd5c60] mb P  I16..4:  1.3%  1.7%  0.1%  P16..4: 12.6%  2.3%  0.3%  0.0%  0.0%    skip:81.7%
[libx264 @ 0x564ac1cd5c60] mb B  I16..4:  0.0%  0.0%  0.0%  B16..8:  7.9%  0.2%  0.0%  direct: 0.0%  skip:91.9%  L0:36.0% L1:63.6% BI: 0.4%
[libx264 @ 0x564ac1cd5c60] 8x8 transform intra:55.9% inter:69.0%
[libx264 @ 0x564ac1cd5c60] coded y,uvDC,uvAC intra: 9.0% 22.8% 1.8% inter: 0.8% 0.5% 0.0%
[libx264 @ 0x564ac1cd5c60] i16 v,h,dc,p: 39% 42% 10%  9%
[libx264 @ 0x564ac1cd5c60] i8 v,h,dc,ddl,ddr,vr,hd,vl,hu:  1%  2% 90%  1%  1%  1%  1%  1%  3%
[libx264 @ 0x564ac1cd5c60] i4 v,h,dc,ddl,ddr,vr,hd,vl,hu:  8% 14% 45%  5%  3%  7%  4%  4%  9%
[libx264 @ 0x564ac1cd5c60] i8c dc,h,v,p: 82% 11%  6%  1%
[libx264 @ 0x564ac1cd5c60] Weighted P-Frames: Y:4.1% UV:0.0%
[libx264 @ 0x564ac1cd5c60] ref P L0: 63.1% 21.8% 11.3%  3.5%  0.3%
[libx264 @ 0x564ac1cd5c60] ref B L0: 79.5% 17.6%  2.9%
[libx264 @ 0x564ac1cd5c60] ref B L1: 85.9% 14.1%
[libx264 @ 0x564ac1cd5c60] PSNR Mean Y:40.885 U:46.329 V:48.773 Avg:42.182 Global:42.080 kb/s:35.55
